<svg width="29" height="27" viewBox="0 0 29 27" fill="none" xmlns="http://www.w3.org/2000/svg">
<path d="M28.3324 13.5C28.3327 16.529 27.2973 19.4701 25.3929 21.8496C23.4885 24.229 20.8258 25.9085 17.8337 26.6174C16.781 26.8736 15.7005 27.0021 14.6161 27C14.3075 27 14.0046 26.9887 13.7017 26.9662C11.0342 26.7904 8.47702 25.8511 6.34475 24.2637C4.21249 22.6764 2.59811 20.5102 1.70017 18.0318C0.802238 15.5533 0.65991 12.8705 1.29069 10.3134C1.92148 7.75638 3.29787 5.43654 5.25057 3.63925C7.20327 1.84196 9.64713 0.645605 12.2815 0.197327C14.916 -0.250951 17.6261 0.0684005 20.0785 1.1161C22.531 2.1638 24.6188 3.89417 26.0852 6.09436C27.5517 8.29455 28.3327 10.8686 28.3324 13.5Z" fill="white"/>
<path fill-rule="evenodd" clip-rule="evenodd" d="M17.8396 11.0084C17.8167 11.8465 17.8053 13.7871 17.8053 13.7871H21.7258C21.5487 15.1259 21.3772 16.414 21.2058 17.7077H17.8338V26.6177C16.7812 26.8739 15.7006 27.0023 14.6162 27.0002C14.3076 27.0002 14.0047 26.989 13.7018 26.9665V17.6965H10.3242V13.7871H13.7247V13.4946C13.7247 12.7071 13.7075 11.9252 13.7247 11.1377C13.7322 10.6349 13.7742 10.1332 13.8504 9.63591C13.9347 9.0568 14.1358 8.50016 14.4421 7.99878C14.7483 7.49739 15.1534 7.0614 15.6335 6.71651C16.5064 6.12267 17.5443 5.80839 18.6054 5.81654C19.3083 5.79966 20.0056 5.83336 20.7085 5.86156C21.0915 5.88404 21.4743 5.93462 21.8344 5.96842V9.46715H21.5544C20.8686 9.46715 20.1884 9.45027 19.5026 9.47275C18.5654 9.50651 17.8739 9.85529 17.8396 11.0084Z" fill="#2A4564"/>
</svg>
