<svg width="28" height="27" viewBox="0 0 28 27" fill="none" xmlns="http://www.w3.org/2000/svg">
<path d="M13.7163 27C21.2916 27 27.4325 20.9558 27.4325 13.5C27.4325 6.04415 21.2916 0 13.7163 0C6.14098 0 0 6.04415 0 13.5C0 20.9558 6.14098 27 13.7163 27Z" fill="white"/>
<path d="M22.1963 9.27589C22.1084 8.17528 21.6124 7.1449 20.8027 6.38086C19.9431 5.59151 18.8179 5.14178 17.6425 5.11772C15.6169 5.00897 10.8069 4.94028 9.118 5.21159C8.22723 5.31524 7.3908 5.68741 6.7233 6.27713C6.0558 6.86685 5.58987 7.64527 5.38935 8.50575C4.97871 9.94909 5.06028 16.6013 5.29989 18.028C5.40847 18.9247 5.80153 19.7649 6.42316 20.4291C7.0448 21.0933 7.86337 21.5477 8.76247 21.7277C10.1221 22.0732 16.8032 22.0289 18.3026 21.7898C19.2141 21.686 20.0692 21.3026 20.7468 20.6937C21.4245 20.0849 21.8902 19.2815 22.0779 18.3976C22.4719 16.9161 22.3342 10.6124 22.1963 9.27589ZM20.61 17.752C20.5363 18.4302 20.2199 19.0604 19.7172 19.5299C19.2146 19.9993 18.5586 20.2774 17.8667 20.3143C16.4765 20.4644 10.268 20.5468 8.97847 20.1919C8.41444 20.0575 7.90613 19.7554 7.52261 19.3267C7.13908 18.898 6.89893 18.3635 6.83477 17.7958C6.61505 14.9465 6.61419 12.0849 6.83219 9.23546C6.90705 8.5609 7.22256 7.93435 7.72262 7.46721C8.22268 7.00008 8.87486 6.72264 9.56319 6.68425C12.3885 6.50094 15.2233 6.51221 18.047 6.718C18.7358 6.79179 19.3754 7.10441 19.8515 7.59993C20.3275 8.09545 20.6089 8.74152 20.6452 9.42254C20.8267 12.1966 20.8149 14.9796 20.61 17.752ZM13.7201 9.15183C12.8461 9.15137 11.9915 9.40601 11.2645 9.88356C10.5375 10.3611 9.97072 11.0401 9.6358 11.8347C9.30089 12.6293 9.21289 13.5038 9.38295 14.3476C9.553 15.1915 9.97347 15.9667 10.5912 16.5753C11.2089 17.1839 11.9961 17.5986 12.8532 17.7669C13.7104 17.9352 14.599 17.8495 15.4067 17.5207C16.2144 17.192 16.9049 16.6348 17.3909 15.9198C17.8769 15.2048 18.1365 14.364 18.137 13.5037C18.1373 12.9325 18.0233 12.3669 17.8015 11.839C17.5797 11.3112 17.2544 10.8315 16.8443 10.4274C16.4342 10.0233 15.9472 9.70268 15.4111 9.48381C14.8751 9.26494 14.3005 9.15214 13.7201 9.15183ZM13.6898 16.3112C13.1246 16.3062 12.5736 16.1364 12.1064 15.8232C11.6393 15.5099 11.277 15.0674 11.0654 14.5516C10.8538 14.0357 10.8024 13.4697 10.9176 12.9251C11.0329 12.3804 11.3096 11.8817 11.7128 11.4918C12.1161 11.102 12.6277 10.8386 13.1831 10.735C13.7384 10.6314 14.3125 10.6922 14.8327 10.9097C15.353 11.1272 15.796 11.4916 16.1058 11.9569C16.4156 12.4223 16.5782 12.9675 16.5731 13.5238C16.5697 13.8932 16.4925 14.2583 16.3458 14.5983C16.199 14.9382 15.9857 15.2464 15.718 15.5053C15.4502 15.7641 15.1333 15.9685 14.7853 16.1068C14.4373 16.245 14.065 16.3145 13.6898 16.3112ZM19.3463 8.98739C19.3458 9.1888 19.2847 9.38554 19.1706 9.55273C19.0565 9.71992 18.8945 9.85005 18.7053 9.92667C18.516 10.0033 18.3079 10.0229 18.1073 9.98317C17.9067 9.94339 17.7226 9.84596 17.5783 9.70319C17.4339 9.56042 17.3358 9.37873 17.2964 9.18109C17.257 8.98346 17.278 8.77875 17.3568 8.59286C17.4355 8.40697 17.5686 8.24825 17.739 8.13677C17.9094 8.02528 18.1096 7.96604 18.3142 7.96654C18.4501 7.96687 18.5846 7.99353 18.71 8.04501C18.8354 8.09649 18.9493 8.17178 19.0451 8.26658C19.1409 8.36137 19.2169 8.47382 19.2686 8.59749C19.3202 8.72117 19.3467 8.85366 19.3463 8.98739Z" fill="#2A4564"/>
</svg>
