<svg width="28" height="27" viewBox="0 0 28 27" fill="none" xmlns="http://www.w3.org/2000/svg">
<path d="M14.2837 27C21.859 27 28 20.9558 28 13.5C28 6.04415 21.859 0 14.2837 0C6.70843 0 0.567444 6.04415 0.567444 13.5C0.567444 20.9558 6.70843 27 14.2837 27Z" fill="white"/>
<path fill-rule="evenodd" clip-rule="evenodd" d="M7.88915 18.7318C7.60188 18.6466 7.33958 18.4948 7.12431 18.2891C6.90904 18.0834 6.74709 17.8298 6.65206 17.5497C6.1168 16.1004 5.95849 10.0384 6.98907 8.8441C7.32563 8.44359 7.80963 8.19054 8.33523 8.14028C11.113 7.84606 19.6989 7.88806 20.6885 8.23894C20.966 8.32807 21.2194 8.4778 21.4297 8.67694C21.6401 8.87607 21.802 9.11945 21.9033 9.38887C22.4891 10.8868 22.5093 16.337 21.8257 17.7803C21.6429 18.1572 21.336 18.4623 20.9547 18.6458C19.919 19.1807 9.2523 19.1742 7.88915 18.7318ZM12.3019 15.8907C13.9722 15.0378 15.6281 14.1927 17.3051 13.3371C15.6256 12.4749 13.9702 11.6246 12.3019 10.7676V15.8907Z" fill="#2A4564"/>
</svg>
