<svg width="22" height="22" viewBox="0 0 22 22" fill="none" xmlns="http://www.w3.org/2000/svg">
<path d="M10.9999 0C8.82432 1.91163e-05 6.69759 0.645174 4.88866 1.85388C3.07973 3.06259 1.66985 4.78056 0.837301 6.79055C0.00475232 8.80054 -0.21307 11.0123 0.21138 13.1461C0.635829 15.2798 1.68349 17.2398 3.22187 18.7782C4.76025 20.3166 6.72026 21.3642 8.85405 21.7886C10.9878 22.2131 13.1996 21.9952 15.2096 21.1627C17.2195 20.3301 18.9375 18.9202 20.1462 17.1112C21.3549 15.3023 22 13.1756 22 11C21.9999 8.08261 20.841 5.28475 18.7781 3.22186C16.7152 1.15898 13.9173 4.54403e-05 10.9999 0V0ZM13.8962 10.0077L13.8026 11.0311H11.8685V17.5463H9.26264V11.0311H7.95944V8.4254H9.25172V7.24754C9.25172 6.18164 9.7595 4.51619 11.994 4.51619L14.0071 4.52473V6.75751H12.5454C12.4642 6.75317 12.3831 6.76681 12.3078 6.79746C12.2326 6.82811 12.165 6.875 12.1099 6.9348C12.0549 6.9946 12.0137 7.06582 11.9894 7.14337C11.965 7.22092 11.9581 7.30289 11.9692 7.38341V8.42543H14.0402L13.8962 10.0077Z" fill="white"/>
</svg>
