<svg width="17" height="17" viewBox="0 0 17 17" fill="none" xmlns="http://www.w3.org/2000/svg">
<path fill-rule="evenodd" clip-rule="evenodd" d="M1.37876 6.38321C1.37876 3.61936 3.6193 1.37882 6.38315 1.37882C9.147 1.37882 11.3875 3.61936 11.3875 6.38321C11.3875 9.14706 9.147 11.3876 6.38315 11.3876C3.6193 11.3876 1.37876 9.14706 1.37876 6.38321ZM6.38315 0.105469C2.91605 0.105469 0.105408 2.91611 0.105408 6.38321C0.105408 9.85031 2.91605 12.6609 6.38315 12.6609C7.88738 12.6609 9.26805 12.1319 10.3492 11.2497L15.8077 16.7082C16.0563 16.9568 16.4595 16.9568 16.7081 16.7082C16.9567 16.4595 16.9567 16.0564 16.7081 15.8078L11.2496 10.3493C12.1318 9.26813 12.6609 7.88745 12.6609 6.38321C12.6609 2.91611 9.85025 0.105469 6.38315 0.105469Z" fill="white"/>
</svg>
