<svg width="16" height="16" viewBox="0 0 16 16" fill="none" xmlns="http://www.w3.org/2000/svg">
<path fill-rule="evenodd" clip-rule="evenodd" d="M1.19849 6.00772C1.19849 3.35166 3.35166 1.19849 6.00772 1.19849C8.66379 1.19849 10.817 3.35166 10.817 6.00772C10.817 8.66379 8.66379 10.817 6.00772 10.817C3.35166 10.817 1.19849 8.66379 1.19849 6.00772ZM6.00772 0.198486C2.79937 0.198486 0.198486 2.79937 0.198486 6.00772C0.198486 9.21608 2.79937 11.817 6.00772 11.817C7.43189 11.817 8.73636 11.3045 9.74677 10.4539L14.9481 15.6552C15.1433 15.8504 15.4599 15.8504 15.6552 15.6552C15.8504 15.4599 15.8504 15.1433 15.6552 14.9481L10.4539 9.74677C11.3045 8.73635 11.817 7.43189 11.817 6.00772C11.817 2.79937 9.21608 0.198486 6.00772 0.198486Z" fill="#333333"/>
</svg>
