<svg width="22" height="22" viewBox="0 0 22 22" fill="none" xmlns="http://www.w3.org/2000/svg">
<path d="M10.9999 7.37905e-10C8.82432 1.91169e-05 6.69759 0.645174 4.88866 1.85388C3.07973 3.06259 1.66985 4.78056 0.837302 6.79055C0.00475322 8.80054 -0.21307 11.0123 0.211379 13.146C0.635827 15.2798 1.68348 17.2398 3.22186 18.7782C4.76025 20.3166 6.72026 21.3642 8.85405 21.7886C10.9878 22.2131 13.1996 21.9952 15.2095 21.1627C17.2195 20.3301 18.9375 18.9202 20.1462 17.1113C21.3549 15.3023 22 13.1756 22 11C22 9.55545 21.7155 8.12504 21.1627 6.79045C20.6099 5.45586 19.7996 4.24323 18.7782 3.22178C17.7567 2.20034 16.5441 1.39008 15.2095 0.837289C13.8749 0.284494 12.4445 -1.67307e-05 10.9999 7.37906e-10V7.37905e-10ZM17.4217 15.327C17.3425 15.8125 16.527 15.7258 15.8038 15.7492C15.2606 15.7903 14.7142 15.7427 14.1862 15.6085C13.6972 15.4132 12.4135 13.7131 12.0753 13.7789C11.3238 13.9252 11.5959 15.499 11.3719 15.6085C10.794 15.7315 10.1993 15.7551 9.61347 15.6784C7.49702 15.3223 6.27015 13.9045 5.11134 12.0899C3.69445 9.87091 2.8555 8.20683 3.21196 8.00844C3.60297 7.79109 4.69791 7.8371 5.8149 7.86751C6.14722 7.877 7.11369 10.284 7.36223 10.683C8.36935 12.2962 8.68575 11.1042 8.69899 10.9642C8.97225 8.07202 8.26427 8.20317 7.85467 8.14938C8.1634 7.21177 10.3167 7.37525 10.3167 7.37525C10.6576 7.45345 10.9881 7.57153 11.3014 7.72703C11.4107 7.8002 11.5322 8.03412 11.5129 8.78257C11.4834 9.91051 11.3689 11.4488 11.8646 11.4565C12.2471 11.4624 12.8523 10.5629 13.3421 9.62679C13.7747 8.79936 14.1083 7.99635 14.256 7.93825C14.769 7.87017 15.2868 7.84651 15.8039 7.86752C16.4856 7.86426 17.173 7.85822 17.3514 8.00845C17.7117 8.31259 17.0854 9.29957 16.5075 10.1193C16.033 10.7925 15.1195 11.6791 15.1707 12.1595C15.2416 12.8308 17.5985 14.2418 17.4217 15.327Z" fill="white"/>
</svg>
