<svg width="23" height="22" viewBox="0 0 23 22" fill="none" xmlns="http://www.w3.org/2000/svg">
<path d="M11.066 22C17.1775 22 22.1319 17.0751 22.1319 11C22.1319 4.92486 17.1775 0 11.066 0C4.9544 0 0 4.92486 0 11C0 17.0751 4.9544 22 11.066 22Z" fill="white"/>
<path fill-rule="evenodd" clip-rule="evenodd" d="M5.90698 15.263C5.67522 15.1936 5.4636 15.0699 5.28993 14.9023C5.11625 14.7347 4.98559 14.5281 4.90892 14.2998C4.47709 13.1189 4.34937 8.1795 5.18081 7.20637C5.45235 6.88004 5.84282 6.67385 6.26686 6.63289C8.50787 6.39316 15.4349 6.42738 16.2332 6.71329C16.4571 6.78591 16.6615 6.90791 16.8312 7.07017C17.0009 7.23243 17.1315 7.43074 17.2133 7.65026C17.6858 8.87081 17.7022 13.3117 17.1506 14.4877C17.0032 14.7949 16.7556 15.0434 16.448 15.1929C15.6124 15.6288 7.00674 15.6235 5.90698 15.263ZM9.46708 12.948C10.8147 12.2531 12.1506 11.5645 13.5035 10.8673C12.1486 10.1648 10.813 9.47193 9.46708 8.77368V12.948Z" fill="#1A1A1A"/>
</svg>
