<svg width="23" height="22" viewBox="0 0 23 22" fill="none" xmlns="http://www.w3.org/2000/svg">
<path d="M11.066 22C17.1775 22 22.1319 17.0751 22.1319 11C22.1319 4.92486 17.1775 0 11.066 0C4.9544 0 0 4.92486 0 11C0 17.0751 4.9544 22 11.066 22Z" fill="#333333"/>
<path fill-rule="evenodd" clip-rule="evenodd" d="M5.90698 15.2628C5.67522 15.1934 5.4636 15.0697 5.28993 14.902C5.11625 14.7344 4.98559 14.5278 4.90892 14.2996C4.47709 13.1187 4.34937 8.17926 5.18081 7.20613C5.45235 6.87979 5.84282 6.67361 6.26686 6.63265C8.50787 6.39291 15.4349 6.42713 16.2332 6.71304C16.4571 6.78566 16.6615 6.90767 16.8312 7.06992C17.0009 7.23218 17.1315 7.43049 17.2133 7.65002C17.6858 8.87057 17.7022 13.3115 17.1506 14.4875C17.0032 14.7946 16.7556 15.0432 16.448 15.1927C15.6124 15.6285 7.00674 15.6232 5.90698 15.2628ZM9.46708 12.9478C10.8147 12.2529 12.1506 11.5643 13.5035 10.8671C12.1486 10.1646 10.813 9.47169 9.46708 8.77344V12.9478Z" fill="white"/>
</svg>
